<svg width="121" height="120" viewBox="0 0 121 120" fill="none" xmlns="http://www.w3.org/2000/svg">
<g id="Frame 341">
<rect x="0.5" width="120" height="120" rx="12" fill="#9F1818"/>
<g id="Group">
<g id="Group_2">
<path id="Vector" d="M57.3061 55.1968L54.7336 59.6465L57.3061 58.0055V55.1968Z" fill="#FBFBFC"/>
<path id="Vector_2" d="M57.7795 63.1267H61.357L59.5683 61.981L57.7795 63.1267Z" fill="#FBFBFC"/>
<path id="Vector_3" d="M61.8743 55.2036V58.0343L64.4686 59.6977L61.8743 55.2036Z" fill="#FBFBFC"/>
<path id="Vector_4" d="M57.3062 46.3345L46.6401 64.8278L51.7771 61.5387L57.306 51.9742L57.3062 46.3345Z" fill="#FBFBFC"/>
<path id="Vector_5" d="M48.6582 68.9664H54.941V66.1577H53.0484L48.6582 68.9664Z" fill="#FBFBFC"/>
<path id="Vector_6" d="M66.0869 66.1577H63.5442V68.9664H70.4774L66.0869 66.1577Z" fill="#FBFBFC"/>
<path id="Vector_7" d="M61.8743 51.9736L67.4251 61.5896L72.5695 64.8787L61.8744 46.3413L61.8743 51.9736Z" fill="#FBFBFC"/>
<path id="Vector_8" d="M66.0722 62.4762L60.3956 58.84V41.1742H62.2584V36H56.9219V41.1742H58.7843V58.8099L53.1301 62.4316L42.3537 69.3275H38V74.5018H43.3364V70.6209L52.8343 64.538L54.9412 63.1854L55.0372 63.1262L59.568 60.2215L66.3088 64.538L75.7772 70.6064V74.5017H81.1063V69.3275H76.7748L66.0722 62.4762Z" fill="#FBFBFC"/>
<path id="Vector_9" d="M55.976 80.5602V83.9998H62.4433V80.6994L64.5279 75.803L60.374 68.6187H59.981L59.9747 72.3289C60.2557 72.5433 60.4332 72.8834 60.4332 73.2604C60.4332 73.9257 59.8936 74.4579 59.2357 74.4579C58.5778 74.4579 58.0382 73.9257 58.0382 73.2604C58.0382 72.8834 58.2157 72.5433 58.4966 72.3289L58.5029 68.6187H58.1122L53.9509 75.803L55.976 80.5602Z" fill="#FBFBFC"/>
<path id="Vector_10" d="M56.419 68.5972L57.2614 67.1411H61.2233L62.0657 68.5972V64.606H56.4189L56.419 68.5972Z" fill="#FBFBFC"/>
</g>
</g>
</g>
</svg>
