<svg width="121" height="120" viewBox="0 0 121 120" fill="none" xmlns="http://www.w3.org/2000/svg">
<g id="Design">
<rect x="0.5" width="120" height="120" rx="12" fill="#B71178"/>
<g id="Group">
<path id="Vector" d="M50.034 54.6636L41.0827 77.5965C40.8212 78.1844 41.0173 78.8378 41.4096 79.2954L42.5202 80.406L58.397 64.5293C57.6783 63.288 57.809 61.6543 58.9196 60.6092C60.1609 59.3679 62.2517 59.3679 63.4931 60.6092C64.7344 61.8505 64.7344 63.9412 63.4931 65.1827C62.4479 66.2279 60.8143 66.424 59.573 65.7053L43.6962 81.6474L44.8068 82.7581C45.264 83.2153 45.9174 83.346 46.5058 83.0849L69.4398 74.0683C71.3345 73.3496 72.7719 71.8467 73.3599 69.8866L77.5415 57.4071C77.8684 56.4268 77.6069 55.3163 76.8882 54.5975L69.5705 47.2798C68.8518 46.5611 67.7412 46.2996 66.7609 46.6265L54.216 50.7427C52.3213 51.3961 50.8185 52.8335 50.0343 54.6633L50.034 54.6636Z" fill="#FBFBFC"/>
<path id="Vector_2" d="M72.183 36.238L87.8636 51.9186C88.2554 52.3105 88.2554 52.8989 87.8636 53.2253L84.5315 56.5574C83.6167 57.4723 82.1792 57.4723 81.3301 56.5574L67.5438 42.8365C66.629 41.9216 66.629 40.4841 67.5438 39.6351L70.8759 36.303C71.2677 35.9107 71.8557 35.9107 72.1826 36.2372L72.183 36.238Z" fill="#FBFBFC"/>
<path id="Vector_3" d="M40.9516 84.0002C40.7554 84.0002 36.5738 83.9348 34.4176 80.4719C32.3273 77.1398 32.9152 71.9129 36.2474 64.9221C38.0113 61.1977 37.2926 58.0617 36.0513 56.4281C35.071 55.1868 33.6989 54.5988 32.2615 54.7945L32 53.2264C34.0908 52.8995 36.0509 53.6836 37.3576 55.4479C39.3177 57.9959 39.4484 61.9165 37.6845 65.5751C34.6788 71.9129 34.0254 76.7478 35.7898 79.5576C37.4887 82.2364 40.9516 82.3018 40.9516 82.3018L40.9516 84.0002Z" fill="#FBFBFC"/>
</g>
</g>
</svg>
