<svg width="121" height="120" viewBox="0 0 121 120" fill="none" xmlns="http://www.w3.org/2000/svg">
<g id="Frame 34144">
<rect x="0.5" width="120" height="120" rx="12" fill="#E1A302"/>
<g id="Group">
<path id="Vector" d="M45.6095 48.7832C44.6333 48.7832 43.8201 49.5965 43.8201 50.5727C43.8201 51.5488 44.6334 52.3621 45.6095 52.3621C46.5857 52.3621 47.399 51.5488 47.399 50.5727C47.399 49.5965 46.5857 48.7832 45.6095 48.7832Z" fill="#FBFBFC"/>
<path id="Vector_2" d="M58.7036 52.2797H62.2821V48.7012H58.7036V52.2797Z" fill="#FBFBFC"/>
<path id="Vector_3" d="M75.3768 48.7832C74.4006 48.7832 73.5874 49.5965 73.5874 50.5727C73.5874 51.5488 74.4007 52.3621 75.3768 52.3621C76.353 52.3621 77.1663 51.5488 77.1663 50.5727C77.1659 49.5965 76.3526 48.7832 75.3768 48.7832Z" fill="#FBFBFC"/>
<path id="Vector_4" d="M60.4932 40.2426C45.9344 26.8227 24.6255 48.4575 39.0212 62.8533L59.9238 83.7559C60.0863 83.9184 60.2491 84 60.4929 84C60.7371 84 60.8996 83.9187 61.0621 83.7559L81.9646 62.8533C85.2994 59.5186 86.7634 55.6959 86.7634 52.0359C86.7634 40.2426 71.7167 29.9131 60.4929 40.2426H60.4932ZM75.3768 53.907C73.7502 53.907 72.4487 52.7683 72.0421 51.3043H63.9088V53.0938C63.9088 53.5817 63.5834 53.9071 63.0955 53.9071H61.8756L67.406 64.968C67.5685 65.2934 67.4873 65.7 67.2435 65.9442C66.9994 66.1883 66.5927 66.1883 66.2673 66.0254L63.5833 64.3176V67.1641C63.5833 67.652 63.2579 67.9774 62.77 67.9774H58.2966C57.8087 67.9774 57.4833 67.652 57.4833 67.1641V64.3176L54.7993 66.0254C54.4739 66.1879 54.0673 66.1879 53.8231 65.9442C53.579 65.7 53.4977 65.2934 53.6606 64.968L59.1911 53.9071H57.9711C57.4832 53.9071 57.1578 53.5817 57.1578 53.0938V51.3043H48.8621C48.4554 52.7683 47.1543 53.907 45.5273 53.907C43.6566 53.907 42.1113 52.3617 42.1113 50.491C42.1113 48.6202 43.6566 47.0749 45.5273 47.0749C47.1539 47.0749 48.4554 48.2136 48.8621 49.6776H57.0765V47.8882C57.0765 47.4003 57.4019 47.0749 57.8898 47.0749H63.0953C63.5832 47.0749 63.9086 47.4003 63.9086 47.8882V49.6776H72.123C72.5297 48.2136 73.8308 47.0749 75.4578 47.0749C77.3285 47.0749 78.8738 48.6202 78.8738 50.491C78.7926 52.4429 77.2472 53.907 75.3766 53.907H75.3768Z" fill="#FBFBFC"/>
</g>
</g>
</svg>
