<svg width="121" height="120" viewBox="0 0 121 120" fill="none" xmlns="http://www.w3.org/2000/svg">
<g id="Ideate">
<rect x="0.5" width="120" height="120" rx="12" fill="#025FC0"/>
<g id="Group">
<path id="Vector" d="M60.1958 51.8433H67.3721V53.1374H60.1958V51.8433Z" fill="#FBFBFC"/>
<path id="Vector_2" d="M52.7837 47.4907H67.3717V48.7849H52.7837V47.4907Z" fill="#FBFBFC"/>
<path id="Vector_3" d="M52.7837 51.8433H58.5091V53.1374H52.7837V51.8433Z" fill="#FBFBFC"/>
<path id="Vector_4" d="M57.372 71.2545C57.372 72.2349 57.921 73.1368 58.7445 73.5682V83.9998H57.9602C56.3916 76.1175 52.8622 72.3133 48.5091 64.6666C47.764 63.3333 47.215 61.6078 47.2542 60.1176C47.2542 59.7255 47.215 57.0589 47.2542 56.6274H58.7445V68.902C57.921 69.3726 57.372 70.2353 57.372 71.2549V71.2545Z" fill="#FBFBFC"/>
<path id="Vector_5" d="M72.8226 60.0791C72.901 61.5693 72.352 63.2948 71.5677 64.6281C67.2541 72.3142 63.7247 76.1183 62.1561 83.9999H61.3718V73.5682C62.1953 73.0976 62.7051 72.2349 62.7051 71.2546C62.7051 70.2743 62.1561 69.3723 61.3718 68.9409V56.627H72.8226C72.8618 57.0191 72.8226 59.6857 72.8226 60.0779V60.0791Z" fill="#FBFBFC"/>
<path id="Vector_6" d="M66.7839 36.0007H57.0586C56.4312 36.0007 55.8822 36.236 55.4508 36.6673L48.1568 43.8045C47.6078 44.3143 47.3333 45.0594 47.3333 45.8044V55.1766H49.3724V45.8044C49.3724 45.726 49.4116 45.6083 49.4116 45.5299L52.1959 45.4515C52.3919 45.4515 52.588 45.4515 52.7449 45.4122C54.3527 45.2162 55.8036 44.1574 56.4311 42.6672C56.6272 42.275 56.7056 41.8437 56.784 41.4123V38.1967L56.8624 38.1182C56.9017 38.079 56.9801 38.0398 57.0193 38.0398H66.7446C68.9407 38.0398 70.7054 39.8437 70.7054 42.0006V55.098H72.7446V42.0391C72.823 38.7058 70.1172 36 66.7839 36L66.7839 36.0007Z" fill="#FBFBFC"/>
<path id="Vector_7" d="M78.4301 41.5298C78.7046 42.0788 78.9399 42.6278 79.2144 43.1768C79.2928 43.3337 79.4497 43.4905 79.6457 43.6082C80.1555 43.8827 80.6653 44.118 81.2928 44.3925C80.7438 44.667 80.234 44.8631 79.7242 45.1376C79.4889 45.2552 79.2928 45.4905 79.1752 45.6866C78.9007 46.1572 78.7046 46.667 78.4301 47.2552C78.1556 46.7062 77.9595 46.1572 77.685 45.6866C77.5674 45.4513 77.3321 45.2552 77.136 45.1376C76.6654 44.8631 76.1556 44.667 75.5674 44.3925C76.1556 44.118 76.6654 43.9219 77.1752 43.6474C77.3713 43.5298 77.5674 43.3337 77.685 43.1376C77.9203 42.6278 78.1556 42.0788 78.3517 41.569C78.3517 41.5298 78.3909 41.5298 78.4301 41.5298H78.4301Z" fill="#FBFBFC"/>
<path id="Vector_8" d="M38.8627 42.667C39.1372 43.216 39.3725 43.765 39.647 44.314C39.7254 44.4709 39.8823 44.6277 40.0784 44.7454C40.5882 45.0199 41.098 45.2552 41.7254 45.5297C41.1764 45.8042 40.6666 46.0003 40.1568 46.2748C39.9215 46.3924 39.7254 46.6277 39.6078 46.8238C39.3333 47.2944 39.1372 47.8042 38.8627 48.3924C38.5882 47.8434 38.3921 47.2944 38.1176 46.8238C38 46.5885 37.7647 46.3924 37.5686 46.2748C37.098 46.0003 36.5882 45.8042 36 45.5297C36.5882 45.2552 37.098 45.0591 37.6079 44.7846C37.8039 44.667 38 44.4709 38.1177 44.2748C38.3529 43.765 38.5882 43.216 38.7843 42.7062C38.8235 42.667 38.8627 42.667 38.8627 42.667H38.8627Z" fill="#FBFBFC"/>
<path id="Vector_9" d="M78.3915 75.6074C77.9209 74.5486 77.5287 73.6466 77.0582 72.7839C76.8229 72.3917 76.4699 71.9996 76.0386 71.7643C75.1758 71.2937 74.2738 70.9016 73.2151 70.3918C74.2738 69.882 75.2543 69.4899 76.1562 68.9801C76.5091 68.784 76.8228 68.4703 77.0189 68.1174C77.4895 67.2155 77.8816 66.2743 78.3914 65.1763C78.9012 66.235 79.2933 67.1762 79.7639 68.0782C79.9599 68.4311 80.3129 68.7841 80.6658 68.9801C81.5677 69.4507 82.5088 69.8428 83.6069 70.3526C82.5481 70.8231 81.6461 71.1761 80.7834 71.6859C80.352 71.9212 79.9599 72.3525 79.6853 72.7839C79.2148 73.6466 78.8618 74.5486 78.3912 75.6074H78.3915Z" fill="#FBFBFC"/>
<path id="Vector_10" d="M47.2543 71.961C47.5288 72.5493 47.8033 72.9806 47.9601 73.4512C48.2739 74.5885 49.0582 75.1374 50.0778 75.5296C50.5091 75.6865 50.9013 75.9218 51.4502 76.1571C50.6267 76.5492 49.8424 76.863 49.1366 77.2551C48.8229 77.412 48.5092 77.7257 48.3523 78.0394C47.9601 78.7453 47.6464 79.4904 47.2543 80.353C46.8621 79.5295 46.5092 78.8629 46.1955 78.1177C45.9994 77.6472 45.6857 77.3334 45.2151 77.1373C44.5092 76.8628 43.8426 76.5099 43.019 76.1177C43.8818 75.7256 44.6661 75.3726 45.3719 74.9805C45.6465 74.8236 45.921 74.5491 46.0778 74.2746C46.5484 73.6079 46.8621 72.8628 47.2543 71.9609V71.961Z" fill="#FBFBFC"/>
</g>
</g>
</svg>
